<svg width="176" height="32" viewBox="0 0 176 40" fill="none" xmlns="http://www.w3.org/2000/svg">
<path d="M113.5 26.076H124.08V35H104.3V2.8H113.5V26.076Z" fill="#1890FF"/>
<path d="M130.669 10.252C129.381 10.252 128.261 9.792 127.311 8.872C126.391 7.92133 125.931 6.81733 125.931 5.56C125.931 4.30266 126.391 3.214 127.311 2.294C128.261 1.34333 129.381 0.867998 130.669 0.867998C131.926 0.867998 133.015 1.34333 133.935 2.294C134.885 3.214 135.361 4.30266 135.361 5.56C135.361 6.81733 134.885 7.92133 133.935 8.872C133.015 9.792 131.926 10.252 130.669 10.252ZM126.391 35V12H134.901V35H126.391Z" fill="#1890FF"/>
<path d="M146.799 18.762C146.799 19.13 147.075 19.4213 147.627 19.636C148.209 19.8507 148.93 20.0193 149.789 20.142C150.647 20.234 151.567 20.4333 152.549 20.74C153.53 21.0467 154.45 21.43 155.309 21.89C156.167 22.35 156.873 23.086 157.425 24.098C158.007 25.0793 158.299 26.2753 158.299 27.686C158.299 29.158 157.961 30.446 157.287 31.55C156.643 32.654 155.784 33.482 154.711 34.034C153.637 34.586 152.533 34.9847 151.399 35.23C150.295 35.506 149.145 35.644 147.949 35.644C142.398 35.644 138.81 33.8193 137.185 30.17L144.591 26.858C145.173 28.422 146.262 29.204 147.857 29.204C148.899 29.204 149.421 28.8667 149.421 28.192C149.421 27.7933 149.037 27.4713 148.271 27.226C147.504 26.9807 146.584 26.7353 145.511 26.49C144.437 26.214 143.349 25.8613 142.245 25.432C141.171 24.972 140.251 24.2207 139.485 23.178C138.718 22.1353 138.335 20.832 138.335 19.268C138.335 16.7533 139.285 14.806 141.187 13.426C143.119 12.046 145.342 11.356 147.857 11.356C152.886 11.356 156.213 13.3033 157.839 17.198L150.801 19.728C150.249 18.44 149.39 17.796 148.225 17.796C147.274 17.796 146.799 18.118 146.799 18.762Z" fill="#1890FF"/>
<path d="M175.352 20.096H170.522V25.064C170.522 25.8307 170.706 26.398 171.074 26.766C171.442 27.134 171.979 27.3487 172.684 27.41C173.42 27.4407 174.309 27.4253 175.352 27.364V35C170.537 35.6747 167.103 35.2607 165.048 33.758C163.024 32.2553 162.012 29.5107 162.012 25.524V20.096H158.792V12H162.012V8.09L170.522 5.56V12H175.352V20.096Z" fill="#1890FF"/>
<path d="M20.31 11.724H9.49999V15.91H20.08V24.834H9.49999V35H0.299988V2.8H20.31V11.724Z" fill="#ffffff"/>
<path d="M34.8758 35.644C31.4411 35.644 28.5125 34.4787 26.0898 32.148C23.6978 29.8173 22.5018 26.9347 22.5018 23.5C22.5018 20.0653 23.6978 17.1827 26.0898 14.852C28.4818 12.5213 31.4105 11.356 34.8758 11.356C38.3411 11.356 41.2698 12.5213 43.6618 14.852C46.0538 17.1827 47.2498 20.0653 47.2498 23.5C47.2498 26.9347 46.0538 29.8173 43.6618 32.148C41.2698 34.4787 38.3411 35.644 34.8758 35.644ZM32.0698 26.444C32.8058 27.18 33.7411 27.548 34.8758 27.548C36.0105 27.548 36.9305 27.18 37.6358 26.444C38.3718 25.6773 38.7398 24.696 38.7398 23.5C38.7398 22.304 38.3718 21.338 37.6358 20.602C36.9305 19.8353 36.0105 19.452 34.8758 19.452C33.7411 19.452 32.8058 19.8353 32.0698 20.602C31.3645 21.338 31.0118 22.304 31.0118 23.5C31.0118 24.696 31.3645 25.6773 32.0698 26.444Z" fill="#ffffff"/>
<path d="M61.2899 35.644C57.8552 35.644 54.9265 34.4787 52.5039 32.148C50.1119 29.8173 48.9159 26.9347 48.9159 23.5C48.9159 20.0653 50.1119 17.1827 52.5039 14.852C54.8959 12.5213 57.8245 11.356 61.2899 11.356C64.7552 11.356 67.6839 12.5213 70.0759 14.852C72.4679 17.1827 73.6639 20.0653 73.6639 23.5C73.6639 26.9347 72.4679 29.8173 70.0759 32.148C67.6839 34.4787 64.7552 35.644 61.2899 35.644ZM58.4839 26.444C59.2199 27.18 60.1552 27.548 61.2899 27.548C62.4245 27.548 63.3445 27.18 64.0499 26.444C64.7859 25.6773 65.1539 24.696 65.1539 23.5C65.1539 22.304 64.7859 21.338 64.0499 20.602C63.3445 19.8353 62.4245 19.452 61.2899 19.452C60.1552 19.452 59.2199 19.8353 58.4839 20.602C57.7785 21.338 57.4259 22.304 57.4259 23.5C57.4259 24.696 57.7785 25.6773 58.4839 26.444Z" fill="#ffffff"/>
<path d="M92.0279 2.8H100.538V35H92.0279V32.93C90.5559 34.7393 88.5013 35.644 85.8639 35.644C82.7666 35.644 80.2366 34.494 78.2739 32.194C76.3113 29.894 75.3299 26.996 75.3299 23.5C75.3299 20.004 76.3113 17.106 78.2739 14.806C80.2366 12.506 82.7666 11.356 85.8639 11.356C88.5013 11.356 90.5559 12.2607 92.0279 14.07V2.8ZM84.9439 26.582C85.7106 27.41 86.7073 27.824 87.9339 27.824C89.1606 27.824 90.1419 27.41 90.8779 26.582C91.6446 25.754 92.0279 24.7267 92.0279 23.5C92.0279 22.2733 91.6446 21.246 90.8779 20.418C90.1419 19.59 89.1606 19.176 87.9339 19.176C86.7073 19.176 85.7106 19.59 84.9439 20.418C84.2079 21.246 83.8399 22.2733 83.8399 23.5C83.8399 24.7267 84.2079 25.754 84.9439 26.582Z" fill="#ffffff"/>
</svg>
